Simulation
nRows=42
nColumns=15
endheader
time  TH_x TH_y TH_z SC_y  SC_z  SC_x  AC_y  AC_z  AC_x  GH_y  GH_z  GH_yy  EL_x  PS_y
7.203000000000001  0.000000  0.000000  0.000000  -22.7757488486849  3.364246023253434  -4.218904091591462  41.53408899692161  8.164302487625523  -6.41282742931716  65.05015888572832  26.098068051310843  1.9188937816182188  13.16723944482304  120.000000
7.251020000000001  0.000000  0.000000  0.000000  -23.269077545207175  3.3295286172916394  -3.583953491613941  41.937617249165754  8.442983673042525  -6.61647408670352  64.84104769849421  28.67881580905729  0.5121537207229121  12.582230810076753  120.000000
7.2990400000000015  0.000000  0.000000  0.000000  -23.87025689464376  3.4318177852505802  -2.499307950413459  42.517387461286695  8.793704072340763  -6.782731311569791  64.7972809703827  31.32206656803261  -1.3807477757783229  12.10296258704396  120.000000
7.347060000000001  0.000000  0.000000  0.000000  -24.469047602266198  3.692719745082528  -0.9157548431947631  43.27457439206061  9.156152084209612  -6.866834738093852  64.82183783173411  33.88408769629147  -3.627618311048524  11.71854713580553  120.000000
7.395080000000001  0.000000  0.000000  0.000000  -25.000145016678125  4.1330563028061125  1.1822445749155048  44.18604423823487  9.4561079873278  -6.842462102185427  64.83107890917768  36.264106204664316  -6.091390039076956  11.411261287642175  120.000000
7.443100000000001  0.000000  0.000000  0.000000  -25.46218476343034  4.76839535808524  3.7650314778600484  45.21602916766233  9.622607295876607  -6.69901113310059  64.74239548174482  38.399396090498264  -8.62901116763711  11.15745149954696  120.000000
7.491120000000001  0.000000  0.000000  0.000000  -25.900700359218334  5.590319775328869  6.783020017869028  46.3226399253635  9.594895997059982  -6.432304576307165  64.50087740281943  40.25663555627502  -11.118900474500881  10.939272916234104  120.000000
7.5391400000000015  0.000000  0.000000  0.000000  -26.38409653124647  6.554707958521755  10.188911962042285  47.446177890540966  9.325597578239108  -6.039938349149084  64.08914767679316  41.82541683596289  -13.476653285137468  10.7511238675833  120.000000
7.587160000000001  0.000000  0.000000  0.000000  -26.978689843266093  7.60669234508711  13.93606849082524  48.536722894767074  8.776523745336526  -5.515514319060079  63.50487013046052  43.115907114014554  -15.643203109505283  10.593789804411653  120.000000
7.635180000000001  0.000000  0.000000  0.000000  -27.730938753449177  8.695400328546453  17.964224192107416  49.574845828309314  7.927989701328746  -4.854105737901903  62.743504467004506  44.15395567580542  -17.574105695985068  10.467210697916121  120.000000
7.683200000000001  0.000000  0.000000  0.000000  -28.661742877364613  9.776725182474786  22.192369031533605  50.558259171509334  6.786302028780954  -4.054906484315167  61.792547587564904  44.969591119885706  -19.235539497218824  10.369799379346905  120.000000
7.731220000000001  0.000000  0.000000  0.000000  -29.763459790285303  10.816612334598444  26.521641224869118  51.48628914970303  5.387995895339111  -3.1282236525884635  60.64421502988507  45.59126530858778  -20.613124000561747  10.300456763517902  120.000000
7.7792400000000015  0.000000  0.000000  0.000000  -31.000817192256076  11.793871829065496  30.8423852673635  52.34759585229153  3.7948547013819707  -2.099657694167068  59.31105169689553  46.049828310947746  -21.720108551212544  10.260084585452345  120.000000
7.827260000000001  0.000000  0.000000  0.000000  -32.316978140330214  12.704445112226495  35.044318508848406  53.118451420491866  2.082699590886158  -1.0076867947875017  57.8269885132508  46.379596003726995  -22.593055630840922  10.249355932966063  120.000000
7.875280000000001  0.000000  0.000000  0.000000  -33.6441689028711  13.56300776787907  39.023601309570715  53.764668946209895  0.3268210625474961  0.10034013627501402  56.240772480858105  46.6218865260052  -23.278308861658253  10.26646433371591  120.000000
7.923300000000001  0.000000  0.000000  0.000000  -34.9127302196801  14.400974984497983  42.690073946887274  54.24448317511709  -1.4093667093586837  1.1708921012884417  54.60825937619352  46.824856688754075  -23.818892061593324  10.304310169100551  120.000000
7.971320000000001  0.000000  0.000000  0.000000  -36.06109865441011  15.26346221770542  45.96877517885721  54.512502927888725  -3.0776873610941737  2.144525477125097  52.987190090832385  47.04527162285874  -24.246190643721928  10.35154696921477  120.000000
8.019340000000001  0.000000  0.000000  0.000000  -37.03635675861528  16.198214259001073  48.79921380815398  54.52135494597472  -4.642005815815693  2.956967874565607  51.432150238491566  47.34272161418611  -24.577786715846724  10.394327744067114  120.000000
8.06736  0.000000  0.000000  0.000000  -37.79624170214152  17.240508917523876  51.1326110834242  54.231842250360714  -6.075375944831624  3.543215944857175  49.99046361229422  47.77526309329107  -24.820161578061924  10.42094280179403  120.000000
8.115380000000002  0.000000  0.000000  0.000000  -38.3020883156838  18.40118482081633  52.931343829933404  53.64029812323984  -7.360210690871358  3.855272224876175  48.694479352628605  48.39967003685096  -24.97081516500304  10.42462606299109  120.000000
8.163400000000001  0.000000  0.000000  0.000000  -38.5153046877286  19.646589177936463  54.16458769182966  52.80895675936251  -8.476910477437002  3.882952982741144  47.56386674247479  49.255361764659256  -25.025635545293802  10.406639280313552  120.000000
8.21142  0.000000  0.000000  0.000000  -38.40551816850024  20.866900948600446  54.8501463866625  51.85305166730343  -9.416450235145918  3.6365152381529438  46.62039486881886  50.31985638260075  -24.989412068094172  10.37506777929232  120.000000
8.259440000000001  0.000000  0.000000  0.000000  -37.9597991334469  21.88861421080936  55.13020481867433  50.8956168594126  -10.199789730162651  3.1072188350624397  45.89803521188399  51.47628738199292  -24.883321575872372  10.334678185285298  120.000000
8.30746  0.000000  0.000000  0.000000  -37.21866104366567  22.602064738141838  55.162077173105665  50.00178302301549  -10.854278331852644  2.3111071557858964  45.44506837339052  52.5779970553801  -24.741128726672198  10.294520367386278  120.000000
8.355480000000002  0.000000  0.000000  0.000000  -36.29419960540478  23.068652626417244  55.02960246878136  49.16585174216898  -11.404496485693018  1.3209561166469956  45.31653428778051  53.49846693364715  -24.60138344128401  10.267226765849173  120.000000
8.403500000000001  0.000000  0.000000  0.000000  -35.295656529859855  23.412828341494087  54.81210981038657  48.36582346522079  -11.892965076292992  0.2253155458911707  45.53845738827319  54.1116425226549  -24.48439791034545  10.249757481803401  120.000000
8.451520000000002  0.000000  0.000000  0.000000  -34.259699717202466  23.696904165232723  54.556574272162436  47.59376459139862  -12.351345558820173  -0.8910899856233588  46.0971656773467  54.31322761874127  -24.38887291289801  10.223800551974168  120.000000
8.499540000000001  0.000000  0.000000  0.000000  -33.19461901373432  23.942910751862115  54.276401495036744  46.85449052693883  -12.777278691411878  -1.9651193107500973  46.980757855719204  54.02379333246732  -24.31551548258196  10.172234946273216  120.000000
8.54756  0.000000  0.000000  0.000000  -32.12478778641379  24.161177211846972  53.985321669835926  46.1558420683396  -13.155327161815567  -2.954540482687083  48.195997414901626  53.178531852979646  -24.278445925984787  10.089600944054315  120.000000
8.595580000000002  0.000000  0.000000  0.000000  -31.085523045188744  24.35135134577985  53.69613769152468  45.51151372708938  -13.475204348621629  -3.8254691699663113  49.753304316873624  51.73365849422927  -24.302517107600966  9.982320415805402  120.000000
8.643600000000001  0.000000  0.000000  0.000000  -30.114434822799854  24.51307644444265  53.42192833469867  44.942333760639535  -13.732022429755304  -4.553389006768659  51.6623363448382  49.66780550480795  -24.422200668814117  9.868233337670913  120.000000
8.691620000000002  0.000000  0.000000  0.000000  -29.242741017864354  24.63662236560958  53.1697133694191  44.46364992470825  -13.925607006793737  -5.125297360582557  53.94020042369044  46.985786858358296  -24.684691851617057  9.771211488691042  120.000000
8.739640000000001  0.000000  0.000000  0.000000  -28.47904096092673  24.72050262591645  52.88455527204951  44.073390064729516  -14.032953750915205  -5.546933055240501  56.63089440793999  43.73833481716763  -25.157049656786196  9.72211902792214  120.000000
8.78766  0.000000  0.000000  0.000000  -27.793668452659784  24.77685490737999  52.40793908566433  43.74326922043879  -13.986068812329252  -5.838187170202005  59.819533989133106  40.05963679375168  -25.933188141975194  9.76132312545933  120.000000
8.835680000000002  0.000000  0.000000  0.000000  -27.142636812367154  24.806125996389916  51.60942243187607  43.439542229982735  -13.742740502092776  -6.040985926277642  63.60461869754602  36.13761852574106  -27.11229262044484  9.926658647234893  120.000000
8.883700000000001  0.000000  0.000000  0.000000  -26.49284895285158  24.789987641799673  50.47567315720853  43.142613946160665  -13.322038257252753  -6.234664910393568  68.08148893278585  32.16546972671153  -28.79201622647622  10.246057618530475  120.000000
8.931720000000002  0.000000  0.000000  0.000000  -25.834356687174687  24.703236683111303  49.05323665902474  42.849220280772045  -12.762026199842477  -6.47740444533811  73.34446686684834  28.30555942859246  -31.084414458644165  10.73699320912445  120.000000
8.979740000000001  0.000000  0.000000  0.000000  -25.187000744969474  24.525996904772885  47.41322400237008  42.57927231524779  -12.093373246051272  -6.760648173984828  79.50080964537635  24.667983492706323  -34.13512191953389  11.399708268115834  120.000000
9.02776  0.000000  0.000000  0.000000  -24.587125706618007  24.247963303330334  45.64820987585108  42.35741664621253  -11.347306376627726  -7.06421206554693  86.70780491791234  21.350607407778817  -38.15868387018004  12.218662074406842  120.000000
9.075780000000002  0.000000  0.000000  0.000000  -24.07394880017931  23.864201566243324  43.852676654849816  42.204933133116874  -10.553033055751822  -7.3754430441803756  95.17458612175574  18.456586718823846  -43.4333265651412  13.16025715412423  120.000000
9.123800000000001  0.000000  0.000000  0.000000  -23.677398053752444  23.37397820597184  42.11254483286156  42.13750562649192  -9.739784619022757  -7.6919695837160225  105.06684165155437  16.10094011959622  -50.20210581268168  14.17620909256799  120.000000
9.171820000000002  0.000000  0.000000  0.000000  -23.419658472522105  22.777686309669452  40.49234708854821  42.18058066950534  -8.931329277468013  -7.996073648892099  116.27098793930718  14.392123162568133  -58.430854012763234  15.209644562434969  120.000000
